<svg width="65" height="64" viewBox="0 0 65 64" fill="none" xmlns="http://www.w3.org/2000/svg">
<g clip-path="url(#clip0)">
<path d="M21.7843 32.6707C22.5723 32.5075 23.3955 32.15 24.1722 31.5894C26.4054 29.974 27.3965 27.3215 26.3837 25.662C25.2825 23.8568 22.2702 23.9782 19.9554 26.0326C17.7418 27.9438 17.2695 29.9409 17.2695 32.0397C17.2695 33.5227 17.7439 36.1707 20.6414 38.4704C22.0095 37.4133 23.6405 36.5437 25.4919 35.9149L25.5164 35.9059C24.0939 35.3131 22.2396 34.1431 21.7843 32.6707ZM21.4271 27.5663C21.4271 26.9462 21.9211 26.4476 22.5305 26.4476C23.1393 26.4476 23.6339 26.9485 23.6339 27.5687C23.6339 28.1888 23.1393 28.6874 22.5305 28.6874C21.9212 28.6874 21.4271 28.1864 21.4271 27.5663Z" fill="#3A3939"/>
<path d="M47.6562 32.0421C47.6496 29.9411 47.1796 27.944 44.9641 26.0328C42.651 23.9804 39.6366 23.8546 38.5353 25.6622C37.5246 27.3217 38.5132 29.9743 40.7464 31.5896C41.5233 32.1502 42.3466 32.5076 43.1343 32.6709C42.8607 33.5559 42.0287 34.4562 40.7599 35.2154C39.0151 36.2567 38.0727 36.3856 26.9096 40.0925C22.7786 41.496 20.3203 44.2853 20.3203 47.5537C20.3203 49.8819 21.5097 51.6783 23.1624 52.9937C24.202 51.9233 25.4997 50.9943 27.0158 50.2505C25.2702 49.3679 24.7316 48.6991 24.7316 47.5537C24.7316 45.6633 28.5102 44.5825 30.2534 44.0074V48.7919L34.667 46.8233V44.0096C36.4129 44.5878 40.1819 45.6672 40.1819 47.5537C40.1819 50.6923 31.1948 52.5431 27.3711 55.1805C25.5153 56.4671 24.5174 58.1025 24.5174 60.0245C24.5174 61.1279 24.6457 62.4962 26.5831 63.8556C27.1325 64.2945 27.8958 63.6534 27.539 63.0367C26.2587 60.4746 27.6181 59.1948 30.2576 58.0868V61.7898C30.2576 63.008 31.2463 63.9967 32.4645 63.9967C33.6826 63.9967 34.6713 63.008 34.6713 61.7898V58.089C37.2068 59.1527 38.8026 60.6555 37.3835 63.0367C37.0318 63.6415 37.7807 64.2998 38.3368 63.8556C40.2126 62.4342 40.3605 61.2161 40.3605 60.0532C40.3605 58.2636 39.3808 56.5268 37.5225 55.196C41.2787 53.8388 44.602 51.5547 44.602 47.5582C44.602 44.7974 42.8478 42.3787 39.8155 40.8472C41.232 40.3374 41.9448 39.9954 42.8916 39.4306C47.0383 36.9522 47.6562 33.737 47.6562 32.0421ZM42.3909 28.6876C41.7815 28.6876 41.2875 28.1866 41.2875 27.5665C41.2875 26.9464 41.7815 26.4455 42.3909 26.4455C42.9997 26.4455 43.4943 26.9464 43.4943 27.5665C43.4943 28.1866 42.9998 28.6876 42.3909 28.6876Z" fill="#3A3939"/>
<path d="M63.3385 4.4189H48.2251C45.2602 4.4189 43.0353 5.72948 41.1213 7.64363C39.0419 9.72301 37.9607 14.3453 34.6498 14.3453V8.21616C35.9637 7.45163 36.8566 6.04437 36.8566 4.41463C36.8566 1.97705 34.8807 0.000976562 32.4429 0.000976562C30.0052 0.000976562 28.0293 1.97705 28.0293 4.41463C28.0293 6.04423 28.9222 7.45149 30.2361 8.21616V34.5167C31.5981 34.0822 33.093 33.6035 34.6498 33.1035V22.0494C35.6073 21.569 36.3798 20.7923 36.8536 19.8311C37.6211 21.143 39.0804 22.0735 40.707 22.0735C42.3567 22.0735 43.778 21.1575 44.5353 19.817C47.1205 22.4025 51.9259 22.4522 54.5112 19.867L50.761 16.1167L52.4813 16.8294C55.8594 18.2287 59.7321 16.6244 61.1317 13.2463L55.804 11.0395C60.9652 11.0394 63.3385 7.80072 63.3385 4.4189Z" fill="#3A3939"/>
<path d="M23.7641 7.64367C21.8501 5.72952 19.6252 4.41895 16.6603 4.41895H1.54688C1.54688 7.80063 3.92018 11.0394 9.08139 11.0394L3.7537 13.2462C5.1531 16.6243 9.02594 18.2284 12.404 16.8293L14.1244 16.1166L10.3742 19.8669C12.9595 22.4523 17.7648 22.4025 20.3501 19.8169C21.1073 21.1576 22.5287 22.0735 24.1784 22.0735C24.1947 22.0735 24.211 22.0734 24.2272 22.0733C26.3836 22.0487 28.0318 20.1009 28.0318 17.9446V13.5047C26.2924 12.0776 25.2962 9.17576 23.7641 7.64367Z" fill="#3A3939"/>
</g>
<defs>
<clipPath id="clip0">
<rect width="64" height="64" fill="white" transform="translate(0.443359 0.000976562)"/>
</clipPath>
</defs>
</svg>
