<svg width="31" height="31" viewBox="0 0 31 31" fill="none" xmlns="http://www.w3.org/2000/svg">
<g clip-path="url(#clip0)">
<path d="M10.5008 15.4795C10.5008 12.7182 12.7387 10.4791 15.5 10.4791C18.2613 10.4791 20.5004 12.7182 20.5004 15.4795C20.5004 18.2408 18.2613 20.4799 15.5 20.4799C12.7387 20.4799 10.5008 18.2408 10.5008 15.4795ZM7.79766 15.4795C7.79766 19.7335 11.246 23.1818 15.5 23.1818C19.754 23.1818 23.2023 19.7335 23.2023 15.4795C23.2023 11.2255 19.754 7.77715 15.5 7.77715C11.246 7.77715 7.79766 11.2255 7.79766 15.4795ZM21.7072 7.47182C21.7072 8.46536 22.5129 9.2723 23.5077 9.2723C24.5012 9.2723 25.3082 8.46536 25.3082 7.47182C25.3082 6.47828 24.5024 5.67255 23.5077 5.67255C22.5129 5.67255 21.7072 6.47828 21.7072 7.47182ZM9.43942 27.6891C7.97698 27.6225 7.18215 27.3789 6.65388 27.173C5.95355 26.9003 5.45436 26.5756 4.92851 26.051C4.40388 25.5263 4.07795 25.0271 3.80654 24.3268C3.60057 23.7986 3.35703 23.0037 3.29039 21.5413C3.21769 19.9601 3.20315 19.4851 3.20315 15.4795C3.20315 11.4738 3.2189 11.0001 3.29039 9.4177C3.35703 7.95526 3.60178 7.16164 3.80654 6.63216C4.07916 5.93183 4.40388 5.43264 4.92851 4.90679C5.45315 4.38216 5.95234 4.05623 6.65388 3.78482C7.18215 3.57885 7.97698 3.33531 9.43942 3.26867C11.0206 3.19597 11.4956 3.18143 15.5 3.18143C19.5057 3.18143 19.9794 3.19718 21.5618 3.26867C23.0242 3.33531 23.8179 3.58006 24.3473 3.78482C25.0477 4.05623 25.5469 4.38216 26.0727 4.90679C26.5973 5.43143 26.9221 5.93183 27.1947 6.63216C27.4006 7.16043 27.6442 7.95526 27.7108 9.4177C27.7835 11.0001 27.7981 11.4738 27.7981 15.4795C27.7981 19.4839 27.7835 19.9589 27.7108 21.5413C27.6442 23.0037 27.3994 23.7986 27.1947 24.3268C26.9221 25.0271 26.5973 25.5263 26.0727 26.051C25.5481 26.5756 25.0477 26.9003 24.3473 27.173C23.8191 27.3789 23.0242 27.6225 21.5618 27.6891C19.9806 27.7618 19.5057 27.7763 15.5 27.7763C11.4956 27.7763 11.0206 27.7618 9.43942 27.6891ZM9.31583 0.570365C7.7189 0.643062 6.62843 0.896293 5.67488 1.26705C4.68861 1.64993 3.85259 2.16366 3.01777 2.99726C2.18417 3.83087 1.67044 4.66689 1.28756 5.65437C0.916801 6.60793 0.66357 7.69839 0.590872 9.29532C0.516963 10.8947 0.5 11.406 0.5 15.4795C0.5 19.553 0.516963 20.0643 0.590872 21.6637C0.66357 23.2606 0.916801 24.3511 1.28756 25.3046C1.67044 26.2909 2.18296 27.1281 3.01777 27.9617C3.85137 28.7953 4.6874 29.3078 5.67488 29.6919C6.62965 30.0627 7.7189 30.3159 9.31583 30.3886C10.9164 30.4613 11.4265 30.4795 15.5 30.4795C19.5747 30.4795 20.0848 30.4625 21.6842 30.3886C23.2811 30.3159 24.3716 30.0627 25.3251 29.6919C26.3114 29.3078 27.1474 28.7953 27.9822 27.9617C28.8158 27.1281 29.3284 26.2909 29.7124 25.3046C30.0832 24.3511 30.3376 23.2606 30.4091 21.6637C30.4818 20.0631 30.4988 19.553 30.4988 15.4795C30.4988 11.406 30.4818 10.8947 30.4091 9.29532C30.3364 7.69839 30.0832 6.60793 29.7124 5.65437C29.3284 4.6681 28.8158 3.83208 27.9822 2.99726C27.1486 2.16366 26.3114 1.64993 25.3263 1.26705C24.3716 0.896293 23.2811 0.641851 21.6854 0.570365C20.086 0.497667 19.5747 0.479492 15.5012 0.479492C11.4265 0.479492 10.9164 0.496455 9.31583 0.570365Z" fill="#6900CE"/>
</g>
<defs>
<clipPath id="clip0">
<rect width="30" height="30" fill="white" transform="translate(0.5 0.479492)"/>
</clipPath>
</defs>
</svg>
