<svg width="65" height="64" viewBox="0 0 65 64" fill="none" xmlns="http://www.w3.org/2000/svg">
<g clip-path="url(#clip0)">
<path d="M59.2319 40.7713C57.5707 39.0713 55.6182 37.7038 53.4644 36.7188C53.4644 36.8812 53.4607 36.9437 53.4557 37.0187C53.2669 40.7775 50.5932 43.8787 47.0282 44.7012V47.6138C47.0282 48.65 46.1882 49.4888 45.1532 49.4888C44.1182 49.4888 43.2782 48.65 43.2782 47.6138V44.7025C42.2007 44.455 41.1832 43.9937 40.2832 43.3387C41.9107 46.4275 42.7744 49.8662 42.7744 53.4125V57.4888H62.5682C63.6032 57.4888 64.4432 56.6838 64.4432 55.6912V53.4125C64.4432 48.6987 62.5919 44.2088 59.2319 40.7713ZM56.3232 49.845H55.7569V50.41C55.7569 51.4462 54.9169 52.285 53.8819 52.285C52.8469 52.285 52.0069 51.4462 52.0069 50.41V49.845H51.4407C50.4057 49.845 49.5657 49.005 49.5657 47.97C49.5657 46.9338 50.4057 46.095 51.4407 46.095H52.0069V45.5288C52.0069 44.4925 52.8469 43.6538 53.8819 43.6538C54.9169 43.6538 55.7569 44.4925 55.7569 45.5288V46.095H56.3232C57.3582 46.095 58.1982 46.9338 58.1982 47.97C58.1982 49.005 57.3582 49.845 56.3232 49.845Z" fill="#3A3939"/>
<path d="M11.4271 36.9649C11.4234 36.8974 11.4221 36.8562 11.4209 36.7212C8.52336 38.0474 5.99336 40.0637 4.08211 42.6037C1.70211 45.7624 0.443359 49.5037 0.443359 53.4124V55.6912C0.443359 56.6837 1.28336 57.4887 2.31836 57.4887H17.8596V44.7024C14.3097 43.8861 11.5941 40.7791 11.4271 36.9649Z" fill="#3A3939"/>
<path d="M32.4431 39.5013C31.1106 38.3788 29.6331 37.4438 28.0456 36.7188C28.0456 36.8812 28.0419 36.9437 28.0369 37.0187C27.8481 40.7775 25.1744 43.8787 21.6094 44.7012V57.4888H39.0244V53.4125C39.0244 47.91 36.5056 42.9025 32.4431 39.5013ZM30.9044 49.845H30.3381V50.41C30.3381 51.4462 29.4981 52.285 28.4631 52.285C27.4281 52.285 26.5881 51.4462 26.5881 50.41V49.845H26.0219C24.9869 49.845 24.1469 49.005 24.1469 47.97C24.1469 46.9338 24.9869 46.095 26.0219 46.095H26.5881V45.5288C26.5881 44.4925 27.4281 43.6538 28.4631 43.6538C29.4981 43.6538 30.3381 44.4925 30.3381 45.5288V46.095H30.9044C31.9394 46.095 32.7794 46.9338 32.7794 47.97C32.7794 49.005 31.9394 49.845 30.9044 49.845Z" fill="#3A3939"/>
<path d="M40.5879 36.2063C40.5879 36.7651 40.5879 36.7251 40.5916 36.7926C40.6929 39.2238 42.6966 41.1651 45.1516 41.1651H45.1529C47.6091 41.1626 49.6104 39.2238 49.7116 36.7926C49.7166 36.7301 49.7179 36.7651 49.7179 36.2051C46.7763 37.2526 43.5138 37.2482 40.5879 36.2063Z" fill="#3A3939"/>
<path d="M24.2937 36.7926C24.2987 36.7301 24.2999 36.7651 24.2999 36.2051C21.3583 37.2526 18.0934 37.2482 15.1699 36.2063C15.1699 36.7651 15.1699 36.7251 15.1737 36.7926C15.2749 39.2238 17.2787 41.1651 19.7337 41.1651H19.7349C22.1912 41.1626 24.1924 39.2238 24.2937 36.7926Z" fill="#3A3939"/>
<path d="M54.9727 12.6437C54.9727 9.26123 52.2202 6.51123 48.839 6.51123H41.4665C38.0852 6.51123 35.334 9.26123 35.334 12.6437V14.6062H54.9727V12.6437Z" fill="#3A3939"/>
<path d="M45.1527 33.2389H45.154C50.5227 33.2377 54.9727 28.9027 54.9727 23.4189V18.3564H35.334V23.4189C35.334 28.8614 39.7465 33.2389 45.1527 33.2389Z" fill="#3A3939"/>
<path d="M29.5528 12.6437C29.5528 9.26123 26.8003 6.51123 23.4191 6.51123H16.0466C12.6653 6.51123 9.91406 9.26123 9.91406 12.6437V14.6062H29.5528V12.6437Z" fill="#3A3939"/>
<path d="M19.7328 33.2389H19.7341C25.1028 33.2377 29.5528 28.9027 29.5528 23.4189V18.3564H9.91406V23.4189C9.91406 28.8614 14.3266 33.2389 19.7328 33.2389Z" fill="#3A3939"/>
</g>
<defs>
<clipPath id="clip0">
<rect width="64" height="64" fill="white" transform="translate(0.443359)"/>
</clipPath>
</defs>
</svg>
