<svg width="651" height="550" viewBox="0 0 651 660" fill="none" xmlns="http://www.w3.org/2000/svg">
<path fill-rule="evenodd" clip-rule="evenodd" d="M473.423 562.227C462.354 568.571 451.129 574.695 439.876 580.676C433.926 583.838 427.935 587.054 421.907 590.29C376.123 614.866 328.226 640.576 280.179 652.627C267.251 647.013 253.654 641.607 239.73 636.072C228.44 631.583 216.935 627.009 205.4 622.17L438.056 553.404C439.347 555.317 441.056 556.911 443.054 558.068C445.052 559.224 447.286 559.911 449.588 560.078C451.89 560.244 454.2 559.886 456.344 559.029C458.487 558.173 460.408 556.841 461.961 555.134C465.827 557.428 469.648 559.793 473.423 562.227ZM481.754 557.392C548.066 518.389 607.464 470.681 631.226 397.496C663.187 299.057 658.648 185.84 594.424 104.68C537.138 32.2893 444.681 4.59059 351.918 0.889322C351.525 3.29556 351.053 5.68893 350.504 8.06559C351.42 9.26087 352.029 10.6624 352.278 12.1475C352.527 13.6327 352.409 15.1562 351.933 16.5851C351.458 18.0139 350.64 19.3045 349.55 20.344C348.46 21.3835 347.133 22.1403 345.683 22.5481C345.146 23.7707 344.568 25.0084 343.948 26.2872C341.306 31.7082 338.308 36.9477 334.971 41.971C331.605 46.9115 327.772 51.5164 323.523 55.722C322.079 57.2052 320.485 58.7995 318.792 60.4716C321.2 62.6647 323.962 65.0798 327.244 67.8624C333.745 73.3865 342.279 80.3638 352.646 88.493C353.839 89.4285 355.059 90.3696 356.307 91.3163C357.734 90.6459 359.292 90.2998 360.869 90.3027C362.404 90.3031 363.92 90.6319 365.318 91.267C366.715 91.9021 367.96 92.8288 368.969 93.9849C369.978 95.141 370.728 96.4997 371.169 97.9697C371.61 99.4398 371.731 100.987 371.524 102.508C384.292 111.382 396.469 121.077 407.978 131.531C410.08 130.449 412.48 130.091 414.807 130.51C417.134 130.93 419.258 132.104 420.85 133.852C422.442 135.599 423.414 137.822 423.616 140.178C423.818 142.534 423.238 144.89 421.966 146.883C428.084 154.693 432.814 163.498 435.948 172.912C438.351 173.254 440.568 174.4 442.238 176.162C443.908 177.924 444.932 180.2 445.145 182.618C445.358 185.037 444.746 187.456 443.409 189.483C442.072 191.509 440.089 193.024 437.782 193.781C436.335 201.952 432.016 209.338 425.604 214.607C420.623 218.796 415.348 222.621 409.819 226.054C407.051 227.79 404.307 229.384 401.171 231.049C405.368 232.91 409.57 234.76 413.779 236.601C420.602 239.584 427.414 242.53 434.049 245.4C449.415 252.045 463.839 258.283 475.288 263.628L476.874 264.374C478.922 262.948 481.317 262.103 483.807 261.928C486.296 261.753 488.787 262.256 491.014 263.382C493.241 264.509 495.121 266.217 496.456 268.326C497.79 270.434 498.529 272.865 498.594 275.36C503.175 277.863 507.166 280.177 510.92 282.392C519.86 287.676 527.448 292.42 533.682 297.025C549.23 308.518 565.581 329.634 555.464 349.573C554.577 351.302 553.547 352.954 552.385 354.513C552.602 355.497 552.711 356.502 552.711 357.511C552.71 359.841 552.121 362.134 550.997 364.176C549.873 366.217 548.252 367.942 546.283 369.189C544.314 370.436 542.062 371.166 539.736 371.31C537.41 371.454 535.085 371.007 532.978 370.012C526.066 373.46 518.937 376.453 511.635 378.97C500.446 382.985 486.342 387.382 467.184 392.626C466.759 395.269 465.577 397.731 463.779 399.715C461.982 401.699 459.648 403.118 457.059 403.801C454.471 404.484 451.74 404.4 449.199 403.561C446.657 402.721 444.414 401.162 442.741 399.072C416.102 405.88 383.26 413.726 355.698 420.295L333.619 425.564C332.997 427.994 331.725 430.209 329.94 431.971C328.156 433.734 325.925 434.978 323.487 435.57C321.049 436.161 318.497 436.079 316.102 435.331C313.708 434.583 311.562 433.198 309.895 431.324C298.961 434.024 288.74 436.636 278.813 439.327C260.143 444.389 242.5 449.736 226.389 455.277C227.354 455.565 228.333 455.856 229.327 456.152C234.052 457.56 239.119 459.069 244.601 460.719C265.735 467.087 293.043 475.561 319.389 484.055C333.96 488.753 348.575 493.702 363.004 498.98C365.058 496.67 367.765 495.039 370.766 494.303C373.768 493.567 376.923 493.761 379.812 494.859C382.701 495.958 385.187 497.909 386.942 500.453C388.696 502.998 389.635 506.016 389.635 509.106L389.631 509.216C407.49 516.452 424.839 524.298 441.233 532.922C443.922 530.788 447.256 529.629 450.689 529.634C452.863 529.634 455.012 530.099 456.992 530.998C458.971 531.897 460.736 533.209 462.166 534.846C463.597 536.483 464.661 538.408 465.286 540.49C465.911 542.572 466.084 544.764 465.792 546.919C471.235 550.227 476.559 553.72 481.754 557.392ZM325.28 0.468103C331.444 0.42101 337.621 0.471669 343.801 0.626201C343.359 1.92681 342.882 3.21591 342.372 4.49217C340.377 4.66743 338.495 5.48945 337.01 6.83316L325.28 0.468103ZM303.665 1.06703C302.028 3.13029 300.47 5.25566 298.995 7.43855C297.093 10.1572 295.831 13.2716 295.305 16.5478C294.233 26.2486 295.806 36.0585 299.858 44.9375C300.044 45.3185 300.233 45.7064 300.425 46.0994C301.781 48.8828 303.26 51.9191 304.727 54.5112L300.724 58.4464C294.489 64.4566 288.608 70.8238 283.111 77.5159C281.99 78.9169 280.896 80.3363 279.83 81.7741C278.1 81.8321 276.409 82.3072 274.901 83.1589C273.393 84.0106 272.114 85.2138 271.171 86.6661C270.228 88.1184 269.65 89.7769 269.485 91.5007C269.321 93.2244 269.575 94.9624 270.226 96.5667L269.563 97.768C266.467 103.241 264.131 109.111 262.62 115.215C260.034 128.325 261.774 141.919 267.578 153.955C265.829 155.678 264.723 157.948 264.442 160.388C264.162 162.827 264.725 165.289 266.037 167.364C267.35 169.44 269.333 171.003 271.657 171.795C273.981 172.588 276.506 172.561 278.813 171.719C282.648 176.177 286.86 180.298 291.401 184.035C298.418 189.796 305.829 195.06 313.581 199.786C321.715 204.899 332.076 210.994 345.444 217.974C345.672 219.713 346.322 221.371 347.338 222.801C348.353 224.232 349.703 225.393 351.27 226.182C352.837 226.971 354.573 227.365 356.327 227.329C358.081 227.294 359.8 226.83 361.333 225.978L367.674 229.037C361.622 231.572 354.854 234.299 347.462 237.111L342.691 238.908C340.867 237.591 338.75 236.739 336.522 236.425C334.295 236.112 332.025 236.346 329.908 237.109C327.792 237.871 325.894 239.138 324.378 240.8C322.862 242.462 321.775 244.469 321.21 246.647C311.564 250.033 300.633 253.778 287.818 258.143C286.004 258.761 284.153 259.392 282.269 260.034C266.557 265.384 248.585 271.505 231.39 277.609C229.6 276.456 227.567 275.732 225.45 275.493C223.333 275.255 221.19 275.508 219.188 276.234C217.185 276.96 215.377 278.138 213.905 279.677C212.433 281.217 211.336 283.075 210.7 285.108C207.78 286.192 204.927 287.268 202.162 288.324C182.646 295.619 163.547 303.985 144.953 313.384C137.497 317.049 130.357 321.325 123.605 326.168C121.149 325.311 118.502 325.164 115.966 325.744C113.43 326.324 111.109 327.607 109.27 329.446C107.43 331.285 106.147 333.606 105.566 336.142C104.986 338.677 105.133 341.325 105.989 343.781C105.258 344.786 104.574 345.786 103.939 346.782C100.761 351.674 98.5321 357.12 97.3679 362.836C95.9578 370.819 96.3051 379.013 98.3857 386.848C100.466 394.683 104.23 401.971 109.415 408.203C107.688 410.914 106.959 414.142 107.355 417.332C107.751 420.522 109.245 423.475 111.582 425.682C113.919 427.889 116.952 429.213 120.16 429.425C123.367 429.638 126.549 428.727 129.157 426.848C134.601 430.713 141.053 434.925 147.028 438.417C153.667 442.282 160.545 445.721 167.62 448.713C172.032 450.632 177.153 452.762 182.904 454.977C176.343 457.807 170.389 460.531 165.178 463.051C155.729 467.447 146.646 472.589 138.014 478.427C131.819 482.632 126.096 487.492 120.945 492.925C116.295 497.821 112.413 503.392 109.43 509.45C106.295 515.866 104.148 522.718 103.061 529.775C102.849 531.22 102.668 532.697 102.536 534.196C99.3142 535.39 96.5906 537.638 94.8066 540.573C93.0225 543.51 92.2827 546.962 92.7069 550.371C93.1312 553.781 94.6947 556.946 97.1439 559.356C99.5931 561.765 102.784 563.276 106.2 563.644C113.433 582.812 128.656 595.862 145.98 606.234C152.748 610.289 161.073 614.833 170.512 619.574C169.642 623.006 169.995 626.635 171.509 629.836C173.024 633.037 175.606 635.611 178.812 637.115C182.018 638.62 185.647 638.961 189.077 638.08C192.507 637.2 195.524 635.152 197.608 632.289L200.779 633.672C216.668 640.544 233.961 647.241 250.865 653.786C253.63 654.857 256.385 655.924 259.122 656.987C226.714 662.211 194.369 660.238 162.687 646.53C68.4251 605.744 32.4231 496.113 11.8718 395.483C-7.94693 298.44 -6.18091 194.639 54.3955 116.277C113.223 40.1771 207.587 5.8634 303.665 1.06703ZM333.972 13.6725C333.973 13.1849 334.011 12.6981 334.086 12.2163L321.139 5.18726C319.649 6.3969 317.817 7.10831 315.902 7.22117L314.309 9.04797C313.594 9.87338 312.861 10.7039 312.122 11.5405C303.595 21.2002 294.361 31.6602 303.603 44.2558C305.223 46.4414 306.953 48.5438 308.785 50.555C308.781 50.5587 308.777 50.5624 308.773 50.5661H308.795C308.792 50.5624 308.788 50.5587 308.785 50.555C312.538 46.9008 316.129 43.393 319.081 40.3605C323.329 36.1552 327.163 31.5502 330.529 26.6095C332.187 24.1458 333.858 21.4137 335.431 18.6464C334.477 17.1629 333.971 15.4361 333.972 13.6725ZM290.47 89.3527C290.59 89.7484 290.688 90.1504 290.764 90.557L347.948 96.6066C341.607 91.5222 336.163 87.0299 331.687 83.2239C325.182 77.7032 320.712 73.6388 316.989 69.8781C315.639 68.5135 314.387 67.1935 313.231 65.9182L313.229 65.9147L313.204 65.9388C310.548 68.5242 307.813 71.1863 305.167 73.8079C299.913 79.0056 294.997 84.044 290.47 89.3527ZM352.368 107.639C351.32 106.286 350.61 104.702 350.298 103.018L290.119 96.653C289.302 98.6132 287.923 100.288 286.156 101.466C284.389 102.644 282.313 103.273 280.19 103.273L279.966 103.27C277.729 106.634 275.717 109.971 274.005 113.128C264.77 130.158 262.758 138.293 271.265 151.577C273.805 150.604 276.62 150.628 279.143 151.646C281.666 152.664 283.71 154.6 284.863 157.064L402.255 139.577C402.408 138.487 402.729 137.427 403.207 136.435C393.937 129.109 383.788 122.295 374.826 116.278C371.772 114.228 368.856 112.27 366.159 110.416C364.669 111.258 362.999 111.733 361.289 111.8C359.578 111.866 357.876 111.524 356.324 110.8C354.773 110.077 353.417 108.993 352.368 107.639ZM405.888 149.241C404.736 148.249 403.806 147.023 403.162 145.645L285.769 163.132C285.595 164.369 285.205 165.566 284.617 166.669C285.379 167.338 286.156 168.005 286.958 168.675C293.976 174.436 301.388 179.699 309.14 184.426C319.081 190.674 332.357 198.395 350.374 207.403L350.446 207.436C352.661 206.065 355.298 205.545 357.867 205.972C360.437 206.399 362.765 207.743 364.418 209.756L423.746 184.745C423.453 182.082 424.163 179.405 425.739 177.237C427.314 175.07 429.641 173.568 432.265 173.024C429.904 164.304 425.172 156.409 418.593 150.217C417.303 151.021 415.856 151.543 414.349 151.747C412.841 151.951 411.308 151.834 409.85 151.402C408.391 150.97 407.041 150.233 405.888 149.241ZM427.85 192.06C427.215 191.567 426.637 191.004 426.127 190.382L366.829 215.384C371.637 217.658 376.627 219.971 381.745 222.312L381.828 222.35H381.831L381.914 222.386L382 222.423L382.38 222.592L382.906 222.358C382.991 222.321 383.073 222.285 383.151 222.25C383.521 222.087 383.825 221.953 384.089 221.849L384.16 221.817L384.23 221.789L384.854 221.501C391.933 218.368 398.789 214.757 405.377 210.693C410.906 207.26 416.181 203.435 421.162 199.246C423.668 197.124 425.913 194.712 427.85 192.06ZM386.859 237.977C378.234 241.894 366.902 246.724 353.415 251.894L461.54 270.786C454.274 267.588 446.454 264.205 438.375 260.71C431.776 257.855 425.005 254.926 418.222 251.962C407.632 247.335 397.009 242.612 386.859 237.977ZM386.859 237.977C386.863 237.975 386.868 237.973 386.873 237.971L386.82 237.947L386.805 237.952C386.823 237.961 386.841 237.969 386.859 237.977ZM475.47 285.949C473.786 284.419 472.506 282.498 471.743 280.355L345.708 258.337C343.591 261.201 340.451 263.136 336.941 263.741C333.432 264.345 329.825 263.571 326.872 261.581C316.927 265.077 305.618 268.954 292.26 273.505C290.398 274.139 288.495 274.787 286.559 275.447C274.003 279.722 260.012 284.486 246.135 289.338L527.123 350.248C528.765 347.595 531.254 345.575 534.187 344.513C537.121 343.451 540.327 343.411 543.286 344.398C548.461 339.885 551.983 333.774 553.295 327.034C552.649 324.098 540.723 314.307 538.124 312.386C531.891 307.781 524.303 303.038 515.363 297.754C509.349 294.202 502.727 290.405 494.047 285.972C492.36 287.497 490.323 288.583 488.115 289.133C485.908 289.684 483.599 289.681 481.394 289.125C479.188 288.57 477.153 287.479 475.47 285.949ZM507.193 363.609C512.299 361.778 516.796 360.021 520.784 358.297L235.664 296.493C234.655 298.127 233.317 299.533 231.736 300.621C230.154 301.709 228.363 302.456 226.476 302.814C224.59 303.171 222.65 303.132 220.779 302.699C218.909 302.266 217.149 301.448 215.612 300.297C212.527 301.44 209.517 302.571 206.604 303.686C187.088 310.98 167.99 319.346 149.396 328.746C143.424 331.827 138.702 334.476 134.735 336.967L438.95 383.541L442.041 382.749C443.916 379.947 446.751 377.925 450.012 377.066C453.272 376.206 456.735 376.566 459.749 378.08C480.446 372.473 495.429 367.831 507.193 363.609ZM351.257 404.933C371.474 400.116 394.537 394.608 415.905 389.329L131.233 345.747C129.783 348.452 127.475 350.598 124.672 351.847C121.869 353.097 118.73 353.379 115.749 352.65C113.025 355.597 110.56 358.773 108.382 362.144C96.1666 381.314 100.87 392.159 114.327 403.56C116.12 402.559 118.113 401.971 120.161 401.836C122.21 401.701 124.263 402.024 126.171 402.781C128.079 403.538 129.795 404.711 131.194 406.213C132.593 407.716 133.64 409.51 134.259 411.468L301.551 416.93L308.214 415.28C309.148 413.645 310.405 412.218 311.91 411.086C313.415 409.955 315.135 409.142 316.964 408.698C318.794 408.255 320.695 408.19 322.551 408.507C324.407 408.824 326.178 409.517 327.757 410.544L351.257 404.933ZM188.849 608.5C192.552 609.39 195.789 611.634 197.921 614.79L435.45 544.583C435.472 543.364 435.64 542.152 435.951 540.973C419.589 532.893 402.82 525.663 385.711 519.312C384.095 521.104 382.077 522.487 379.822 523.347C377.566 524.207 375.139 524.519 372.74 524.257C370.341 523.996 368.038 523.168 366.021 521.843C364.005 520.517 362.331 518.731 361.14 516.633L122.871 550.971C122.386 553.899 121.059 556.623 119.05 558.808C117.041 560.993 114.439 562.544 111.562 563.272C116.966 573.96 127.833 582.671 141.537 590.873C151.015 596.55 163.538 603.187 177.909 609.979C181.243 608.137 185.146 607.61 188.849 608.5ZM116.959 536.285C118.919 537.75 120.497 539.665 121.562 541.868L354.479 508.3C330.875 500.448 305.853 493.009 279.063 485.045C269.297 482.142 259.296 479.168 249.043 476.08C242.989 474.255 237.439 472.603 232.297 471.072C222.034 468.017 213.394 465.444 205.602 462.95L205.385 462.955C191.476 468.359 179.276 473.745 169.621 478.411C160.172 482.808 151.089 487.949 142.456 493.788C136.261 497.992 130.538 502.853 125.387 508.286C120.737 513.182 116.855 518.754 113.873 524.811C112.489 527.607 111.296 530.493 110.303 533.45C112.717 533.847 115 534.82 116.959 536.285ZM212.256 443.339C229.738 436.982 249.308 430.866 270.236 425.096L138.868 420.807C146.681 425.529 154.803 429.719 163.178 433.351C171.577 437.01 182.548 441.413 195.523 445.748C197.292 446.338 199.104 446.931 200.96 447.527L201.123 447.523C204.73 446.123 208.441 444.728 212.256 443.339Z" fill="url(#paint0_linear)"/>
<defs>
<linearGradient id="paint0_linear" x1="325.59" y1="0.451172" x2="325.59" y2="659.644" gradientUnits="userSpaceOnUse">
<stop stop-color="#EFDEFF"/>
<stop offset="1" stop-color="#DFEFFE"/>
</linearGradient>
</defs>
</svg>
