<svg width="31" height="31" viewBox="0 0 31 31" fill="none" xmlns="http://www.w3.org/2000/svg">
<path d="M10.2938 15.9834C10.2938 13.2221 12.5317 10.983 15.293 10.983C18.0543 10.983 20.2934 13.2221 20.2934 15.9834C20.2934 18.7447 18.0543 20.9838 15.293 20.9838C12.5317 20.9838 10.2938 18.7447 10.2938 15.9834ZM7.59063 15.9834C7.59063 20.2374 11.0389 23.6857 15.293 23.6857C19.547 23.6857 22.9953 20.2374 22.9953 15.9834C22.9953 11.7294 19.547 8.28106 15.293 8.28106C11.0389 8.28106 7.59063 11.7294 7.59063 15.9834ZM21.5002 7.97572C21.5002 8.96926 22.3059 9.77621 23.3006 9.77621C24.2942 9.77621 25.1011 8.96926 25.1011 7.97572C25.1011 6.98219 24.2954 6.17645 23.3006 6.17645C22.3059 6.17645 21.5002 6.98219 21.5002 7.97572ZM9.23239 28.193C7.76995 28.1264 6.97512 27.8828 6.44685 27.6769C5.74652 27.4042 5.24733 27.0795 4.72148 26.5549C4.19685 26.0302 3.87092 25.5311 3.59951 24.8307C3.39353 24.3025 3.15 23.5076 3.08336 22.0452C3.01066 20.464 2.99612 19.9891 2.99612 15.9834C2.99612 11.9777 3.01187 11.504 3.08336 9.92161C3.15 8.45917 3.39475 7.66555 3.59951 7.13606C3.87213 6.43574 4.19685 5.93655 4.72148 5.4107C5.24612 4.88606 5.74531 4.56013 6.44685 4.28873C6.97512 4.08275 7.76995 3.83921 9.23239 3.77257C10.8136 3.69988 11.2885 3.68534 15.293 3.68534C19.2986 3.68534 19.7724 3.70109 21.3548 3.77257C22.8172 3.83921 23.6108 4.08396 24.1403 4.28873C24.8406 4.56013 25.3398 4.88606 25.8657 5.4107C26.3903 5.93534 26.715 6.43574 26.9876 7.13606C27.1936 7.66434 27.4372 8.45917 27.5038 9.92161C27.5765 11.504 27.591 11.9777 27.591 15.9834C27.591 19.9878 27.5765 20.4628 27.5038 22.0452C27.4372 23.5076 27.1924 24.3025 26.9876 24.8307C26.715 25.5311 26.3903 26.0302 25.8657 26.5549C25.341 27.0795 24.8406 27.4042 24.1403 27.6769C23.612 27.8828 22.8172 28.1264 21.3548 28.193C19.7736 28.2657 19.2986 28.2802 15.293 28.2802C11.2885 28.2802 10.8136 28.2657 9.23239 28.193ZM9.1088 1.07427C7.51187 1.14697 6.4214 1.4002 5.46785 1.77096C4.48158 2.15383 3.64555 2.66757 2.81074 3.50117C1.97714 4.33477 1.46341 5.1708 1.08053 6.15828C0.70977 7.11183 0.456539 8.2023 0.383841 9.79923C0.309932 11.3986 0.292969 11.9099 0.292969 15.9834C0.292969 20.0569 0.309932 20.5682 0.383841 22.1676C0.456539 23.7645 0.70977 24.855 1.08053 25.8085C1.46341 26.7948 1.97593 27.632 2.81074 28.4656C3.64434 29.2992 4.48037 29.8118 5.46785 30.1958C6.42261 30.5666 7.51187 30.8198 9.1088 30.8925C10.7094 30.9652 11.2195 30.9834 15.293 30.9834C19.3677 30.9834 19.8778 30.9664 21.4771 30.8925C23.0741 30.8198 24.1645 30.5666 25.1181 30.1958C26.1044 29.8118 26.9404 29.2992 27.7752 28.4656C28.6088 27.632 29.1213 26.7948 29.5054 25.8085C29.8762 24.855 30.1306 23.7645 30.2021 22.1676C30.2748 20.567 30.2918 20.0569 30.2918 15.9834C30.2918 11.9099 30.2748 11.3986 30.2021 9.79923C30.1294 8.2023 29.8762 7.11183 29.5054 6.15828C29.1213 5.17201 28.6088 4.33598 27.7752 3.50117C26.9416 2.66757 26.1044 2.15383 25.1193 1.77096C24.1645 1.4002 23.0741 1.14576 21.4783 1.07427C19.879 1.00157 19.3677 0.983398 15.2942 0.983398C11.2195 0.983398 10.7094 1.00036 9.1088 1.07427Z" fill="#6900CE"/>
</svg>
