<svg width="26" height="26" viewBox="0 0 26 26" fill="none" xmlns="http://www.w3.org/2000/svg">
<path d="M12.5469 23.5V24M12.5469 6V12" stroke="#14142B" stroke-width="3" stroke-linecap="round" stroke-linejoin="round"/>
<circle cx="12.5469" cy="4" r="2" stroke="#14142B" stroke-width="3"/>
<path d="M8.54688 8.19731C6.54688 6.5 5.54688 5 5.54688 2H1.54688M16.5469 8.19731C19.0469 6.5 19.5469 5 19.5469 2H23.5469" stroke="#14142B" stroke-width="3" stroke-linecap="round" stroke-linejoin="round"/>
<path d="M2.54688 8H3.54688" stroke="#14142B" stroke-width="3" stroke-linecap="round" stroke-linejoin="round"/>
<path d="M21.5469 8H22.5469" stroke="#14142B" stroke-width="3" stroke-linecap="round" stroke-linejoin="round"/>
<path d="M8.54688 12H6.54688C5.44231 12 4.54688 12.8954 4.54688 14V14C4.54688 15.1046 5.44231 16 6.54688 16H16.5469C17.6514 16 18.5469 16.8954 18.5469 18V18C18.5469 19.1046 17.6514 20 16.5469 20H8.54688" stroke="#14142B" stroke-width="3" stroke-linecap="round" stroke-linejoin="round"/>
</svg>
