<svg width="24" height="24" viewBox="0 0 24 24" fill="none" xmlns="http://www.w3.org/2000/svg">
<path d="M1.2069 17.5448C0.955511 17.4305 0.659085 17.5417 0.544817 17.7931C0.430548 18.0445 0.541708 18.3409 0.793099 18.4552L1.2069 17.5448ZM23.2069 18.4552C23.4583 18.3409 23.5695 18.0445 23.4552 17.7931C23.3409 17.5417 23.0445 17.4305 22.7931 17.5448L23.2069 18.4552ZM12 23L11.7931 23.4552C11.9246 23.5149 12.0754 23.5149 12.2069 23.4552L12 23ZM0.793099 18.4552L11.7931 23.4552L12.2069 22.5448L1.2069 17.5448L0.793099 18.4552ZM12.2069 23.4552L23.2069 18.4552L22.7931 17.5448L11.7931 22.5448L12.2069 23.4552Z" fill="#3A3939"/>
<path d="M1.2069 11.0448C0.955511 10.9305 0.659085 11.0417 0.544817 11.2931C0.430548 11.5445 0.541708 11.8409 0.793099 11.9552L1.2069 11.0448ZM23.2069 11.9552C23.4583 11.8409 23.5695 11.5445 23.4552 11.2931C23.3409 11.0417 23.0445 10.9305 22.7931 11.0448L23.2069 11.9552ZM12 16.5L11.7931 16.9552C11.9246 17.0149 12.0754 17.0149 12.2069 16.9552L12 16.5ZM0.793099 11.9552L11.7931 16.9552L12.2069 16.0448L1.2069 11.0448L0.793099 11.9552ZM12.2069 16.9552L23.2069 11.9552L22.7931 11.0448L11.7931 16.0448L12.2069 16.9552Z" fill="#3A3939"/>
<path d="M12 1L23 5L12 10L1 5L12 1Z" fill="#3A3939"/>
</svg>
