<svg width="233" height="104" viewBox="0 0 233 104" fill="none" xmlns="http://www.w3.org/2000/svg">
<g clip-path="url(#clip0)">
<path fill-rule="evenodd" clip-rule="evenodd" d="M33.8765 104C24.892 104 16.2755 100.431 9.92253 94.0777C3.56952 87.7247 0.000382069 79.1082 0.000244141 70.1237C0.000244141 52.9357 15.034 34.4971 23.3549 21.001C27.1234 14.9725 29.9986 8.42985 31.8909 1.57685C31.9924 1.13533 32.2385 0.74038 32.5902 0.454703C32.9418 0.169026 33.3788 0.00898949 33.8317 0L33.9213 0C34.3703 0.00984952 34.8034 0.16775 35.1534 0.449155C35.5033 0.730559 35.7505 1.1197 35.8565 1.55608C37.7549 8.41438 40.6317 14.9633 44.3982 21.001C52.7191 34.4971 67.7528 52.9357 67.7528 70.1237C67.7527 79.1082 64.1835 87.7247 57.8305 94.0777C51.4775 100.431 42.861 104 33.8765 104Z" fill="url(#paint0_linear)"/>
<path fill-rule="evenodd" clip-rule="evenodd" d="M37.941 100.336C37.0029 98.4184 35.5742 96.7831 33.7998 95.5961C33.8706 95.3603 33.8822 95.1106 33.8336 94.8692L52.5185 87.0434C52.76 87.3436 53.1085 87.5386 53.4908 87.5873C53.873 87.636 54.2592 87.5347 54.5683 87.3046C55.1077 87.8191 55.6438 88.3584 56.1766 88.9225C55.7791 88.2596 55.3397 87.6228 54.861 87.0159C55.0734 86.739 55.1818 86.3962 55.1673 86.0475C55.1528 85.6988 55.0163 85.3662 54.7816 85.1079C54.5469 84.8495 54.229 84.6818 53.8833 84.6339C53.5375 84.586 53.186 84.6611 52.8899 84.8459C51.363 83.4019 49.6876 82.1234 47.8917 81.0319C47.9232 80.7997 47.9046 80.5635 47.8372 80.3391C47.7698 80.1147 47.6552 79.9074 47.5011 79.731C47.3469 79.5545 47.1568 79.4132 46.9435 79.3163C46.7301 79.2194 46.4986 79.1693 46.2643 79.1694C45.8943 79.1688 45.5351 79.2937 45.2454 79.5236C43.4788 78.5943 41.6093 77.7489 39.6849 76.9692L39.6853 76.9573C39.6854 76.6243 39.5842 76.2991 39.3951 76.0249C39.2061 75.7507 38.9381 75.5405 38.6268 75.4221C38.3155 75.3037 37.9756 75.2828 37.6521 75.3621C37.3286 75.4414 37.0369 75.6172 36.8157 75.8662C35.2608 75.2973 33.6859 74.7641 32.1158 74.2579C29.2769 73.3426 26.3343 72.4295 24.0569 71.7432C23.3419 71.528 22.6924 71.335 22.0945 71.1569C23.8306 70.5598 25.7317 69.9836 27.7435 69.4381C28.8132 69.1481 29.9146 68.8667 31.0928 68.5757C31.2725 68.7777 31.5037 68.9269 31.7617 69.0075C32.0197 69.0881 32.2948 69.097 32.5575 69.0332C32.8201 68.9695 33.0605 68.8354 33.2528 68.6455C33.4451 68.4556 33.5822 68.2169 33.6492 67.955L36.0284 67.3873C38.9984 66.6794 42.5373 65.834 45.4078 65.1004C45.5881 65.3256 45.8298 65.4936 46.1037 65.5841C46.3776 65.6745 46.6719 65.6835 46.9508 65.61C47.2297 65.5364 47.4812 65.3834 47.6749 65.1697C47.8685 64.9559 47.996 64.6905 48.0417 64.4057C50.1061 63.8407 51.626 63.3669 52.8317 62.9343C53.6185 62.663 54.3867 62.3405 55.1315 61.969C55.3585 62.0762 55.6091 62.1243 55.8597 62.1088C56.1104 62.0933 56.353 62.0147 56.5652 61.8803C56.7773 61.7459 56.9521 61.5601 57.0732 61.3401C57.1942 61.12 57.2578 60.873 57.2578 60.6219C57.2579 60.5132 57.2461 60.4049 57.2228 60.2988C57.3479 60.1309 57.4589 59.9528 57.5545 59.7665C58.6447 57.6179 56.8828 55.3426 55.2074 54.1042C54.5356 53.6079 53.718 53.0967 52.7546 52.5273C52.35 52.2887 51.92 52.0393 51.4264 51.7696C51.4194 51.5007 51.3398 51.2388 51.196 51.0116C51.0522 50.7844 50.8495 50.6003 50.6095 50.4789C50.3696 50.3575 50.1012 50.3034 49.833 50.3222C49.5647 50.341 49.3065 50.4321 49.0859 50.5858L48.915 50.5053C47.1485 49.6807 44.7248 48.6587 42.287 47.5931C41.8335 47.3947 41.3806 47.1953 40.9284 46.9948C41.2663 46.8153 41.562 46.6436 41.8603 46.4565C42.4561 46.0866 43.0245 45.6744 43.5613 45.2231C44.2522 44.6553 44.7175 43.8594 44.8735 42.9789C45.1221 42.8974 45.3358 42.7341 45.4798 42.5157C45.6239 42.2974 45.6898 42.0367 45.6669 41.776C45.644 41.5154 45.5336 41.2703 45.3537 41.0803C45.1737 40.8904 44.9348 40.767 44.6758 40.7301C44.3381 39.7157 43.8285 38.767 43.1692 37.9253C43.3063 37.7106 43.3688 37.4566 43.347 37.2028C43.3253 36.949 43.2205 36.7094 43.0489 36.5211C42.8773 36.3328 42.6485 36.2062 42.3978 36.161C42.1471 36.1158 41.8885 36.1545 41.6619 36.271C40.4217 35.1445 39.1095 34.0998 37.7338 33.1436C37.756 32.9797 37.743 32.813 37.6955 32.6546C37.648 32.4962 37.5672 32.3498 37.4584 32.2252C37.3497 32.1006 37.2155 32.0008 37.065 31.9323C36.9144 31.8639 36.751 31.8285 36.5856 31.8284C36.4157 31.8281 36.2478 31.8654 36.094 31.9376C35.9596 31.8356 35.8281 31.7342 35.6995 31.6334C34.5824 30.7574 33.6628 30.0056 32.9623 29.4103C32.6087 29.1105 32.311 28.8502 32.0515 28.6139C32.234 28.4337 32.4058 28.2619 32.5613 28.1021C33.0191 27.6489 33.4322 27.1527 33.7949 26.6204C34.1544 26.0791 34.4776 25.5145 34.7622 24.9303C34.8291 24.7925 34.8913 24.6591 34.9492 24.5274C35.1054 24.4835 35.2485 24.4019 35.3659 24.2899C35.4833 24.1779 35.5715 24.0388 35.6227 23.8849C35.674 23.7309 35.6867 23.5667 35.6599 23.4067C35.633 23.2466 35.5674 23.0956 35.4687 22.9668C35.5838 22.469 35.6671 21.9643 35.7183 21.4559C36.0894 17.8862 35.3634 13.2025 34.1865 9.87305C34.7093 13.3256 35.0035 16.5779 32.7176 19.5123C32.3816 19.9436 31.9516 20.4339 31.5415 20.9011C31.3044 20.9345 31.0874 21.0524 30.9304 21.2331C30.7734 21.4139 30.6869 21.6452 30.687 21.8846V21.8905C30.4118 22.2119 30.1552 22.5487 29.9183 22.8993C29.7133 23.1922 29.5773 23.5278 29.5206 23.8808C29.4051 24.9262 29.5747 25.9832 30.0113 26.94C30.1734 27.2718 30.3556 27.6529 30.536 27.9716L30.1046 28.3957C29.4327 29.0433 28.799 29.7294 28.2067 30.4506C28.0858 30.6015 27.968 30.7545 27.8531 30.9094C27.6666 30.9157 27.4844 30.9669 27.322 31.0586C27.1595 31.1504 27.0216 31.2801 26.92 31.4366C26.8184 31.5931 26.7561 31.7718 26.7384 31.9575C26.7207 32.1433 26.7481 32.3305 26.8182 32.5034L26.7467 32.6329C26.4131 33.2226 26.1614 33.8551 25.9986 34.5129C25.7199 35.9255 25.9074 37.3905 26.5329 38.6874C26.3444 38.8731 26.2252 39.1177 26.195 39.3806C26.1648 39.6434 26.2254 39.9087 26.3668 40.1323C26.5083 40.3559 26.722 40.5244 26.9724 40.6098C27.2228 40.6952 27.495 40.6923 27.7435 40.6016C28.1568 41.082 28.6106 41.526 29.0999 41.9287C29.8561 42.5495 30.6547 43.1167 31.49 43.626C32.3664 44.177 33.483 44.8337 34.9234 45.5858C34.948 45.7733 35.0181 45.9519 35.1275 46.106C35.2369 46.2602 35.3824 46.3853 35.5512 46.4703C35.7201 46.5554 35.9072 46.5978 36.0962 46.594C36.2852 46.5901 36.4704 46.5401 36.6356 46.4483L37.3189 46.778C36.6668 47.0511 35.9374 47.345 35.1409 47.648L34.6268 47.8416C34.4303 47.6997 34.2021 47.6079 33.9621 47.5741C33.722 47.5403 33.4774 47.5656 33.2494 47.6477C33.0213 47.7299 32.8168 47.8665 32.6534 48.0456C32.4901 48.2247 32.3729 48.4409 32.3121 48.6755C31.2726 49.0404 30.0947 49.444 28.7139 49.9144C26.8885 50.5364 24.7085 51.2753 22.6334 52.0119C22.4404 51.8877 22.2214 51.8096 21.9933 51.7839C21.7652 51.7582 21.5343 51.7855 21.3185 51.8637C21.1027 51.9419 20.9079 52.0689 20.7492 52.2348C20.5906 52.4007 20.4724 52.6009 20.4039 52.82C20.0893 52.9369 19.7818 53.0527 19.4838 53.1666C17.3809 53.9526 15.3229 54.8541 13.3192 55.867C12.5157 56.2619 11.7463 56.7226 11.0189 57.2445C10.7542 57.1521 10.4689 57.1363 10.1956 57.1988C9.92238 57.2612 9.67229 57.3995 9.47407 57.5977C9.27585 57.7959 9.13754 58.046 9.07502 58.3192C9.01249 58.5924 9.02829 58.8778 9.12059 59.1424C9.04176 59.2507 8.96812 59.3585 8.89967 59.4658C8.55724 59.9929 8.31703 60.5797 8.19159 61.1957C8.03964 62.0559 8.07706 62.9389 8.30126 63.7832C8.52545 64.6275 8.93103 65.4127 9.48972 66.0843C9.30362 66.3764 9.22513 66.7243 9.26776 67.068C9.31039 67.4118 9.47146 67.7299 9.72329 67.9678C9.97511 68.2056 10.3019 68.3482 10.6476 68.3712C10.9932 68.3941 11.336 68.2959 11.617 68.0934C12.2037 68.5099 12.8989 68.9638 13.5428 69.3401C14.2582 69.7566 14.9993 70.1271 15.7618 70.4495C16.2371 70.6563 16.789 70.8858 17.4087 71.1245C16.7017 71.4294 16.0601 71.723 15.4986 71.9945C14.4804 72.4682 13.5016 73.0223 12.5714 73.6515C11.9039 74.1045 11.2872 74.6282 10.7321 75.2136C10.2311 75.7412 9.81274 76.3416 9.49136 76.9943C9.15359 77.6857 8.92221 78.4241 8.80507 79.1846C8.78222 79.3402 8.76273 79.4994 8.74843 79.6609C8.40131 79.7896 8.10783 80.0317 7.91559 80.3481C7.72334 80.6645 7.64362 81.0365 7.68933 81.4039C7.73505 81.7713 7.90353 82.1124 8.16745 82.372C8.43137 82.6316 8.77525 82.7945 9.14332 82.8341C9.9227 84.8996 11.5631 86.3059 13.4298 87.4235C14.1592 87.8604 15.0562 88.3501 16.0734 88.8609C15.9796 89.2308 16.0176 89.6218 16.1808 89.9668C16.344 90.3117 16.6223 90.589 16.9677 90.7511C17.3132 90.9133 17.7043 90.95 18.0739 90.8551C18.4435 90.7602 18.7685 90.5396 18.9931 90.2311L19.3349 90.3801C21.7144 91.4093 24.386 92.4018 26.8315 93.3652C28.2537 93.9256 29.6126 94.4226 30.8958 94.9728C30.8877 95.0367 30.8837 95.101 30.8836 95.1654C30.8836 95.4601 30.971 95.7481 31.1347 95.9932C31.2984 96.2382 31.5312 96.4291 31.8034 96.5419C32.0757 96.6546 32.3753 96.684 32.6643 96.6265C32.9533 96.5689 33.2188 96.4269 33.4271 96.2185C35.2262 97.2286 36.7702 98.6371 37.941 100.336ZM32.6511 22.0941C32.6659 22.0253 32.6733 21.955 32.6732 21.8846C32.6732 21.8591 32.6723 21.8336 32.6703 21.8084C32.8586 21.5873 33.0381 21.3708 33.1963 21.1676C33.5741 20.693 33.8997 20.1791 34.1673 19.6347C34.9685 17.9917 35.123 16.2121 35.0261 14.4032L35.0383 14.4549C35.341 16.2201 35.4087 18.0176 35.2395 19.8006C35.1773 20.4342 35.0626 21.0616 34.8966 21.6763C34.8122 21.9836 34.7107 22.2859 34.5924 22.5818C34.3775 22.6006 34.1746 22.6892 34.0147 22.834L32.6511 22.0941ZM33.6995 23.4141C33.6914 23.466 33.6873 23.5185 33.6873 23.571C33.6871 23.761 33.7417 23.9471 33.8445 24.107C33.675 24.4052 33.495 24.6996 33.3162 24.965C32.9536 25.4974 32.5405 25.9937 32.0826 26.4468C31.7642 26.7739 31.3768 27.1523 30.972 27.5465H30.9743C30.7764 27.3295 30.5897 27.1025 30.4148 26.8666C29.3327 25.3918 30.6012 24.1887 31.5685 23.0727L31.7401 22.8758C31.9465 22.8637 32.1439 22.787 32.3044 22.6567L33.6995 23.4141ZM29.0313 31.8558C29.0231 31.812 29.0125 31.7687 28.9996 31.726C29.4875 31.154 30.0172 30.6111 30.5833 30.051C30.8693 29.7676 31.165 29.4799 31.4521 29.2005L31.4523 29.2008C31.5768 29.3383 31.7118 29.4805 31.8572 29.6275C32.2585 30.0328 32.7401 30.4707 33.441 31.0656C33.9233 31.4758 34.51 31.9598 35.1932 32.5077L29.0313 31.8558ZM35.4465 33.1986C35.4802 33.38 35.5567 33.5507 35.6696 33.6966C35.7826 33.8424 35.9287 33.9592 36.0959 34.0372C36.2631 34.1151 36.4465 34.152 36.6308 34.1448C36.8151 34.1376 36.9951 34.0865 37.1557 33.9957C38.2988 34.7817 39.8085 35.741 41.1478 36.7995C41.0963 36.9063 41.0617 37.0206 41.0452 37.138L28.3954 39.0224C28.2711 38.7569 28.0509 38.5483 27.7791 38.4386C27.5072 38.3289 27.2039 38.3263 26.9301 38.4312C26.0134 36.9997 26.2303 36.123 27.2255 34.288C27.4099 33.9478 27.6267 33.5882 27.8677 33.2258L27.8918 33.226C28.1207 33.226 28.3444 33.1583 28.5348 33.0313C28.7252 32.9044 28.8738 32.7239 28.9618 32.5127L35.4465 33.1986ZM41.143 37.7919C41.2124 37.9404 41.3125 38.0725 41.4367 38.1794C41.5609 38.2863 41.7064 38.3657 41.8636 38.4122C42.0207 38.4588 42.186 38.4715 42.3484 38.4495C42.5108 38.4275 42.6667 38.3713 42.8058 38.2846C43.5147 38.9518 44.0246 39.8026 44.279 40.7422C43.9962 40.8008 43.7455 40.9626 43.5757 41.1962C43.406 41.4297 43.3294 41.7182 43.361 42.0052L36.968 44.7004C36.7899 44.4834 36.5391 44.3385 36.2622 44.2926C35.9853 44.2466 35.7011 44.3026 35.4624 44.4503L35.4547 44.4467C33.5132 43.4761 32.0826 42.6441 31.0114 41.9708C30.1761 41.4615 29.3774 40.8943 28.6212 40.2735C28.5347 40.2013 28.451 40.1294 28.369 40.0574C28.4323 39.9386 28.4743 39.8096 28.493 39.6763L41.143 37.7919ZM43.6176 42.6127C43.6725 42.6797 43.7348 42.7403 43.8033 42.7935C43.5946 43.0792 43.3526 43.3392 43.0825 43.5678C42.5458 44.0191 41.9774 44.4314 41.3816 44.8012C40.6718 45.2392 39.9329 45.6283 39.1702 45.9659L39.103 45.997L39.0954 46L39.0877 46.0034C39.0532 46.017 39.0123 46.0354 38.9603 46.0583L38.9036 46.0835L38.8627 46.0653L38.8534 46.0613L38.8444 46.0573H38.8441L38.8351 46.0533C38.2837 45.801 37.746 45.5518 37.2279 45.3068L43.6176 42.6127ZM35.7824 49.241C37.2365 48.6836 38.4581 48.1628 39.3877 47.7406L39.382 47.7381L39.3804 47.7387C40.4758 48.239 41.6226 48.7488 42.7657 49.2483C44.3916 49.9587 46.011 50.6507 47.4336 51.2767L35.7824 49.241ZM48.533 52.3078C48.6152 52.5387 48.7532 52.7458 48.9346 52.9106C49.116 53.0755 49.3352 53.193 49.5729 53.2529C49.8106 53.3127 50.0594 53.313 50.2972 53.2538C50.5351 53.1945 50.7546 53.0775 50.9364 52.9131C51.8717 53.3908 52.5854 53.7999 53.2333 54.1827C54.1967 54.752 55.0143 55.2631 55.686 55.7594C55.9661 55.9663 57.2512 57.0214 57.3208 57.3378C57.1794 58.0641 56.7999 58.7226 56.2422 59.2089C55.9234 59.1025 55.5779 59.1069 55.2618 59.2213C54.9457 59.3357 54.6775 59.5534 54.5006 59.8393L24.2222 53.2758C25.9482 52.6723 27.6906 52.0815 29.1926 51.5697C30.6319 51.0793 31.8505 50.6616 32.9222 50.2848C33.2404 50.4993 33.6291 50.5826 34.0072 50.5175C34.3854 50.4524 34.7238 50.2438 34.9519 49.9353L48.533 52.3078ZM53.8176 60.7066C53.3878 60.8923 52.9032 61.0817 52.353 61.279C51.0854 61.7339 49.4708 62.2341 47.2406 62.8383C46.9158 62.6752 46.5427 62.6364 46.1913 62.729C45.8399 62.8217 45.5345 63.0395 45.3324 63.3415L44.9994 63.4269L12.2182 58.4081C12.6456 58.1397 13.1544 57.8543 13.7979 57.5223C15.8016 56.5094 17.8595 55.6079 19.9625 54.8219C20.2764 54.7017 20.6007 54.5799 20.9332 54.4567C21.0988 54.5807 21.2884 54.6689 21.49 54.7156C21.6915 54.7623 21.9006 54.7665 22.1039 54.7279C22.3071 54.6893 22.5001 54.6089 22.6706 54.4916C22.8411 54.3743 22.9852 54.2229 23.0939 54.0468L53.8176 60.7066ZM42.5161 64.0505C40.2136 64.6193 37.7284 65.2128 35.5498 65.732L33.0175 66.3365C32.8474 66.2259 32.6565 66.1513 32.4566 66.1171C32.2566 66.0829 32.0517 66.0899 31.8546 66.1377C31.6574 66.1855 31.4721 66.2731 31.3099 66.395C31.1478 66.517 31.0123 66.6707 30.9117 66.8469L30.1936 67.0247L12.1669 66.4361C12.1001 66.2252 11.9873 66.0318 11.8366 65.8699C11.6858 65.708 11.5009 65.5816 11.2953 65.5001C11.0897 65.4185 10.8685 65.3837 10.6477 65.3982C10.427 65.4127 10.2122 65.4762 10.0191 65.584C8.56895 64.3555 8.06214 63.1869 9.37838 61.1211C9.61313 60.7579 9.87875 60.4157 10.1723 60.0981C10.4935 60.1767 10.8318 60.1463 11.1338 60.0116C11.4358 59.877 11.6846 59.6457 11.8408 59.3543L42.5161 64.0505ZM33.4489 94.1348C33.1768 93.8508 32.8034 93.6859 32.4101 93.6762C32.0169 93.6665 31.6358 93.8127 31.35 94.0829C28.0249 92.2793 23.9471 90.8667 19.8327 89.1407L44.903 81.7307C45.0422 81.9368 45.2263 82.1086 45.4416 82.2332C45.6569 82.3578 45.8976 82.4319 46.1457 82.4498C46.3937 82.4678 46.6427 82.4291 46.8736 82.3369C47.1046 82.2446 47.3116 82.1011 47.479 81.9171C49.2013 82.9391 50.8423 84.0925 52.3871 85.367C52.2283 85.6439 52.1624 85.9645 52.199 86.2816L33.4489 94.1348ZM19.0269 88.3454C18.7971 88.0054 18.4484 87.7636 18.0493 87.6676C17.6502 87.5717 17.2297 87.6285 16.8705 87.827C15.3218 87.0951 13.9724 86.3799 12.9511 85.7682C11.4744 84.8844 10.3035 83.9457 9.72105 82.7941C10.0311 82.7156 10.3115 82.5484 10.528 82.313C10.7444 82.0775 10.8875 81.7841 10.9397 81.4685L36.6148 77.7684C36.7432 77.9945 36.9235 78.1869 37.1408 78.3297C37.3581 78.4726 37.6063 78.5617 37.8648 78.5899C38.1233 78.6181 38.3849 78.5845 38.6279 78.4919C38.8709 78.3992 39.0884 78.2502 39.2625 78.0571C41.1061 78.7414 42.913 79.5205 44.6762 80.3912C44.6427 80.5182 44.6246 80.6488 44.6222 80.7802L19.0269 88.3454ZM10.7986 80.4876C10.684 80.2502 10.5139 80.0438 10.3027 79.886C10.0916 79.7281 9.84553 79.6233 9.58538 79.5805C9.69247 79.2619 9.821 78.9509 9.97008 78.6497C10.2915 77.9969 10.7098 77.3965 11.2108 76.8689C11.7659 76.2835 12.3826 75.7597 13.0501 75.3066C13.9804 74.6775 14.9592 74.1235 15.9773 73.6497C17.0178 73.1469 18.3324 72.5666 19.8311 71.9842L19.8545 71.9836C21.1148 72.3871 22.5812 72.8095 24.5356 73.3985C28.6709 74.6442 32.4263 75.7158 35.897 76.8705L10.7986 80.4876ZM26.8193 67.9047C24.5642 68.5264 22.4554 69.1855 20.5716 69.8705C20.1604 70.0201 19.7605 70.1704 19.3719 70.3213L19.3544 70.3217C19.1544 70.2575 18.959 70.1936 18.7684 70.13C17.3703 69.6629 16.1881 69.1885 15.2831 68.7942C14.3806 68.4029 13.5054 67.9513 12.6635 67.4425L26.8193 67.9047Z" fill="white"/>
<path fill-rule="evenodd" clip-rule="evenodd" d="M92.8726 30.1579H106.721V25.49H97.8519V8.37453H92.8726V30.1579ZM128.224 8.37453H123.245V20.1688C123.245 23.6539 122.343 25.8633 119.324 25.8633C115.839 25.8633 114.811 23.2805 114.811 19.8884V8.37453H109.833V20.9468C109.833 27.326 113.722 30.5314 119.324 30.5314C123.992 30.5314 128.224 27.8239 128.224 21.1644V8.37453ZM148.887 24.2762C147.52 25.2961 145.862 25.8522 144.157 25.8633C140.236 25.8633 137.56 23.125 137.56 19.266C137.56 14.9718 140.298 12.6688 143.659 12.6688C145.244 12.6515 146.797 13.1184 148.109 14.0071L150.318 10.2728C149.012 8.99694 146.553 8.00098 143.659 8.00098C136.159 8.00098 132.269 13.0111 132.269 19.266C132.269 26.0501 136.937 30.5314 143.69 30.5314C146.647 30.5314 149.479 29.4731 150.785 28.0107L148.887 24.2762ZM154.52 30.1579H167.745V25.49H159.499V21.538H166.5V16.8701H159.499V13.0423H167.434V8.37453H154.52V30.1579ZM172.724 30.1579H177.703V16.3721L183.74 24.7742H184.456L190.524 16.2787V30.1579H195.503V8.37453H190.804L184.456 17.5545L177.734 8.37453H172.724V30.1579ZM92.8726 62.8914H97.8519V49.1058L103.889 57.5078H104.605L110.673 49.0123V62.8914H115.652V41.1082H110.953L104.605 50.2882L97.8828 41.1082H92.8726V62.8914ZM121.564 62.8914H134.79V58.2237H126.544V54.2715H133.545V49.6037H126.544V45.7759H134.479V41.1082H121.564V62.8914ZM139.769 62.8914H140.298C142.383 62.8914 145.246 62.9539 146.398 62.9539C154.706 62.9539 158.876 57.9125 158.876 51.813C158.876 46.0248 155.36 41.0146 146.646 41.0146C145.215 41.0146 141.356 41.1082 140.205 41.1082H139.769V62.8914ZM146.584 45.6825C150.63 45.6825 153.586 47.7988 153.586 51.813C153.586 55.9519 150.848 58.2858 146.553 58.2858C145.951 58.2972 145.348 58.2765 144.748 58.2237V45.7759C145.357 45.7005 145.971 45.6693 146.584 45.6825ZM163.544 62.8914H168.523V41.1082H163.544V62.8914ZM189.809 57.0099C188.441 58.0297 186.784 58.5858 185.078 58.5969C181.157 58.5969 178.481 55.8586 178.481 51.9997C178.481 47.7054 181.22 45.4025 184.581 45.4025C186.166 45.3852 187.718 45.852 189.031 46.7407L191.24 43.0065C189.933 41.7305 187.475 40.7346 184.581 40.7346C177.081 40.7346 173.191 45.7448 173.191 51.9997C173.191 58.7837 177.859 63.265 184.612 63.265C187.568 63.265 190.4 62.2068 191.707 60.7444L189.809 57.0099ZM192.64 62.8914H197.651L199.456 58.3169H208.076L209.88 62.8914H215.202L206.146 41.1082H201.696L192.64 62.8914ZM203.781 47.4875L206.208 53.6492H201.323L203.781 47.4875ZM218.314 62.8914H232.162V58.2237H223.293V41.1082H218.314V62.8914ZM107.934 89.7435C106.567 90.7633 104.91 91.3194 103.204 91.3306C99.2832 91.3306 96.6069 88.5923 96.6069 84.7334C96.6069 80.4391 99.3455 78.1361 102.707 78.1361C104.291 78.1188 105.844 78.5857 107.156 79.4743L109.366 75.7402C108.059 74.4642 105.6 73.4684 102.707 73.4684C95.2065 73.4684 91.3167 78.4784 91.3167 84.7334C91.3167 91.5174 95.9845 95.9987 102.737 95.9987C105.694 95.9987 108.526 94.9403 109.833 93.478L107.934 89.7435ZM113.567 95.6251H127.415V90.9573H118.546V73.8418H113.567V95.6251ZM131.149 95.6251H136.128V73.8418H131.149V95.6251ZM161.335 95.6251V73.8418H156.667V86.974L146.335 73.8418H142.352V95.6251H147.02V82.555L157.352 95.6251H161.335ZM167.559 95.6251H172.538V73.8418H167.559V95.6251ZM193.823 89.7435C192.456 90.7634 190.798 91.3194 189.093 91.3306C185.172 91.3306 182.496 88.5923 182.496 84.7334C182.496 80.4391 185.234 78.1361 188.595 78.1361C190.18 78.1188 191.733 78.5857 193.045 79.4743L195.255 75.7402C193.948 74.4642 191.489 73.4684 188.595 73.4684C181.095 73.4684 177.206 78.4784 177.206 84.7334C177.206 91.5174 181.873 95.9987 188.626 95.9987C191.583 95.9987 194.415 94.9403 195.721 93.478L193.823 89.7435Z" fill="url(#paint1_linear)"/>
</g>
<defs>
<linearGradient id="paint0_linear" x1="33.8765" y1="0" x2="33.8765" y2="104" gradientUnits="userSpaceOnUse">
<stop stop-color="#6900CE"/>
<stop offset="1" stop-color="#5762D5"/>
</linearGradient>
<linearGradient id="paint1_linear" x1="161.739" y1="8.00098" x2="161.739" y2="95.9987" gradientUnits="userSpaceOnUse">
<stop stop-color="#6900CE"/>
<stop offset="1" stop-color="#5762D5"/>
</linearGradient>
<clipPath id="clip0">
<rect width="232.161" height="104" fill="white" transform="translate(0.000244141)"/>
</clipPath>
</defs>
</svg>
