<svg width="24" height="25" viewBox="0 0 24 25" fill="none" xmlns="http://www.w3.org/2000/svg">
<path fill-rule="evenodd" clip-rule="evenodd" d="M6 3.80469C4.34315 3.80469 3 5.14783 3 6.80469V20.8047C3 22.4615 4.34315 23.8047 6 23.8047H18C19.6569 23.8047 21 22.4615 21 20.8047V6.80469C21 5.14783 19.6569 3.80469 18 3.80469C18 4.90926 17.1046 5.80469 16 5.80469H8C6.89543 5.80469 6 4.90926 6 3.80469ZM9.5011 14.7282C8.86123 14.0883 8.86123 13.0509 9.5011 12.411C10.141 11.7711 11.1784 11.7711 11.8183 12.411C11.9186 12.5114 12.0814 12.5114 12.1817 12.411C12.8216 11.7712 13.859 11.7712 14.4989 12.411C15.1388 13.0509 15.1388 14.0883 14.4989 14.7282L12.0171 17.21L12 17.1929L11.9829 17.21L9.5011 14.7282Z" fill="#8D8D8D"/>
</svg>
