<svg width="64" height="64" viewBox="0 0 64 64" fill="none" xmlns="http://www.w3.org/2000/svg">
<g clip-path="url(#clip0)">
<path d="M48.6667 64.001H47.3333C44.76 64.001 42.6667 61.9076 42.6667 59.3343V53.3343H36.6667C34.0933 53.3343 32 51.241 32 48.6676V47.3343C32 44.761 34.0933 42.6676 36.6667 42.6676H42.6667V36.6676C42.6667 34.0943 44.76 32.001 47.3333 32.001H48.6667C51.24 32.001 53.3333 34.0943 53.3333 36.6676V42.6676H59.3333C61.9067 42.6676 64 44.761 64 47.3343V48.6676C64 51.241 61.9067 53.3343 59.3333 53.3343H53.3333V59.3343C53.3333 61.9076 51.24 64.001 48.6667 64.001Z" fill="#3A3939"/>
<path d="M23.9993 26.6676C31.3631 26.6676 37.3327 20.6981 37.3327 13.3343C37.3327 5.97051 31.3631 0.000976562 23.9993 0.000976562C16.6356 0.000976562 10.666 5.97051 10.666 13.3343C10.666 20.6981 16.6356 26.6676 23.9993 26.6676Z" fill="#3A3939"/>
<path d="M26.6667 48.6676V47.3343C26.6667 41.8196 31.152 37.3343 36.6667 37.3343H37.3333V36.6676C37.3333 35.1956 37.672 33.809 38.2453 32.5476C37.0987 32.2276 35.9147 32.001 34.6667 32.001H13.3333C5.97067 32.001 0 37.9716 0 45.3343V54.001C0 55.105 0.896 56.001 2 56.001H29.92C27.9333 54.1716 26.6667 51.5743 26.6667 48.6676Z" fill="#3A3939"/>
</g>
<defs>
<clipPath id="clip0">
<rect width="64" height="64" fill="white" transform="translate(0 0.000976562)"/>
</clipPath>
</defs>
</svg>
