<svg width="31" height="31" viewBox="0 0 31 31" fill="none" xmlns="http://www.w3.org/2000/svg">
<path fill-rule="evenodd" clip-rule="evenodd" d="M25.9221 5.34306C23.1022 2.5332 19.3519 0.984978 15.3564 0.983398C7.12379 0.983398 0.423453 7.6517 0.420158 15.8481C0.41906 18.4682 1.10686 21.0257 2.41386 23.28L0.294922 30.9834L8.21285 28.9162C10.3944 30.1005 12.8506 30.7246 15.3504 30.7256H15.3566C23.5884 30.7256 30.2893 24.0565 30.2926 15.86C30.2942 11.8879 28.7421 8.15292 25.9221 5.34306ZM15.3566 28.2149H15.3515C13.1239 28.214 10.939 27.6184 9.03301 26.4927L8.57965 26.2249L3.8811 27.4516L5.13526 22.8921L4.84004 22.4247C3.59736 20.4574 2.941 18.1836 2.94197 15.8491C2.9447 9.03653 8.5138 3.49412 15.3615 3.49412C18.6773 3.49537 21.7943 4.78228 24.1382 7.11773C26.482 9.45318 27.7721 12.5576 27.7709 15.859C27.768 22.6721 22.199 28.2149 15.3566 28.2149ZM22.1661 18.9611C21.7929 18.7752 19.958 17.8766 19.6159 17.7526C19.2739 17.6286 19.0251 17.5667 18.7762 17.9386C18.5275 18.3104 17.8123 19.1471 17.5945 19.3949C17.3768 19.6429 17.1591 19.6739 16.7859 19.4879C16.4127 19.302 15.2102 18.9098 13.7847 17.6443C12.6753 16.6595 11.9263 15.443 11.7086 15.0712C11.4909 14.6993 11.6854 14.4982 11.8722 14.3131C12.0401 14.1466 12.2454 13.8793 12.432 13.6623C12.6186 13.4454 12.6808 13.2905 12.8052 13.0426C12.9296 12.7947 12.8674 12.5778 12.7741 12.3919C12.6808 12.2059 11.9345 10.3777 11.6234 9.63396C11.3205 8.90965 11.0128 9.00765 10.7838 8.99631C10.5663 8.98554 10.3173 8.98323 10.0685 8.98323C9.81969 8.98323 9.41539 9.07621 9.07328 9.44804C8.7312 9.81991 7.76714 10.7185 7.76714 12.5468C7.76714 14.375 9.10439 16.1413 9.29101 16.3892C9.47758 16.6371 11.9226 20.389 15.6664 21.9979C16.5568 22.3806 17.2519 22.6091 17.7939 22.7804C18.688 23.063 19.5015 23.0231 20.1446 22.9275C20.8616 22.8209 22.3526 22.0289 22.6637 21.1613C22.9747 20.2936 22.9747 19.5499 22.8813 19.395C22.7881 19.24 22.5393 19.1471 22.1661 18.9611Z" fill="#00BC13"/>
</svg>
