<svg width="31" height="31" viewBox="0 0 31 31" fill="none" xmlns="http://www.w3.org/2000/svg">
<g clip-path="url(#clip0)">
<path fill-rule="evenodd" clip-rule="evenodd" d="M26.1286 4.83915C23.3087 2.02929 19.5584 0.481072 15.563 0.479492C7.33033 0.479492 0.629996 7.1478 0.626701 15.3442C0.625603 17.9643 1.31341 20.5218 2.6204 22.7761L0.501465 30.4795L8.41939 28.4123C10.6009 29.5966 13.0572 30.2207 15.557 30.2217H15.5631C23.7949 30.2217 30.4958 23.5526 30.4992 15.3561C30.5008 11.384 28.9486 7.64901 26.1286 4.83915ZM15.5631 27.711H15.558C13.3305 27.7101 11.1456 27.1145 9.23955 25.9888L8.78619 25.721L4.08765 26.9477L5.3418 22.3882L5.04659 21.9208C3.8039 19.9535 3.14754 17.6797 3.14852 15.3452C3.15124 8.53262 8.72034 2.99021 15.568 2.99021C18.8839 2.99147 22.0009 4.27837 24.3447 6.61382C26.6886 8.94928 27.9787 12.0537 27.9774 15.3551C27.9746 22.1682 22.4055 27.711 15.5631 27.711ZM22.3726 18.4572C21.9994 18.2713 20.1646 17.3727 19.8225 17.2487C19.4804 17.1247 19.2316 17.0628 18.9828 17.4347C18.734 17.8065 18.0188 18.6432 17.801 18.891C17.5834 19.1389 17.3657 19.17 16.9925 18.984C16.6193 18.7981 15.4168 18.4059 13.9913 17.1404C12.8819 16.1556 12.1328 14.9391 11.9151 14.5673C11.6974 14.1954 11.892 13.9943 12.0788 13.8092C12.2467 13.6427 12.452 13.3753 12.6386 13.1584C12.8252 12.9415 12.8874 12.7866 13.0117 12.5387C13.1362 12.2908 13.074 12.0739 12.9807 11.888C12.8874 11.702 12.141 9.87375 11.83 9.13005C11.5271 8.40575 11.2194 8.50375 10.9903 8.49241C10.7729 8.48164 10.5238 8.47933 10.275 8.47933C10.0262 8.47933 9.62193 8.57231 9.27982 8.94413C8.93775 9.316 7.97368 10.2146 7.97368 12.0429C7.97368 13.8711 9.31094 15.6374 9.49755 15.8853C9.68412 16.1332 12.1291 19.8851 15.8729 21.494C16.7633 21.8767 17.4585 22.1052 18.0005 22.2765C18.8945 22.5591 19.7081 22.5192 20.3512 22.4236C21.0682 22.317 22.5592 21.525 22.8702 20.6574C23.1812 19.7897 23.1812 19.046 23.0879 18.8911C22.9946 18.7361 22.7458 18.6432 22.3726 18.4572Z" fill="#00BC13"/>
</g>
<defs>
<clipPath id="clip0">
<rect width="30" height="30" fill="white" transform="translate(0.5 0.479492)"/>
</clipPath>
</defs>
</svg>
